<?xml version="1.0" encoding="UTF-8" standalone="no"?>
<svg width="357px" height="253px" viewBox="0 0 357 253" version="1.1" xmlns="http://www.w3.org/2000/svg" xmlns:xlink="http://www.w3.org/1999/xlink" xmlns:sketch="http://www.bohemiancoding.com/sketch/ns">
    <!-- Generator: Sketch 3.0.1 (7597) - http://www.bohemiancoding.com/sketch -->
    <title>Movie Reel 2</title>
    <description>Created with Sketch.</description>
    <defs></defs>
    <g id="Cinema-Selection" stroke="none" stroke-width="1" fill="none" fill-rule="evenodd" sketch:type="MSPage">
        <g id="Desktop" sketch:type="MSArtboardGroup" transform="translate(-600.000000, -296.000000)" fill="#fff">
            <path d="M770.282113,315.534451 C829.919302,282.878759 905.023635,303.701038 939.19592,362.889173 C973.851788,422.914897 953.285456,499.669493 893.259732,534.325361 C833.234008,568.981229 756.479412,548.414897 721.823544,488.389173 C698.404242,447.825752 700.202789,399.6229 722.354832,361.93463 C688.305542,375.108633 647.487443,390.034306 638.257165,390.518044 C623.289418,391.302469 592.276112,343.754702 619.05713,351.134901 C638.234344,356.419677 723.44255,330.614151 770.282113,315.534451 Z M871.645939,401.889173 C879.515996,415.520513 896.946323,420.190955 910.577663,412.320897 C924.209002,404.450839 928.879444,387.020513 921.009387,373.389173 C913.139329,359.757833 895.709002,355.087391 882.077663,362.957449 C868.446323,370.827507 863.775881,388.257833 871.645939,401.889173 Z M858.782491,493.609028 C866.652548,507.240367 884.082875,511.910809 897.714215,504.040752 C911.345554,496.170694 916.015996,478.740367 908.145939,465.109028 C900.275881,451.477688 882.845554,446.807246 869.214215,454.677304 C855.582875,462.547361 850.912433,479.977688 858.782491,493.609028 Z M784.782491,365.437268 C792.652548,379.068608 810.082875,383.73905 823.714215,375.868992 C837.345554,367.998934 842.015996,350.568608 834.145939,336.937268 C826.275881,323.305928 808.845554,318.635486 795.214215,326.505544 C781.582875,334.375601 776.912433,351.805928 784.782491,365.437268 Z M813.006211,436.322186 C817.700632,444.45316 828.097668,447.239038 836.228643,442.544618 C844.359618,437.850197 847.145495,427.45316 842.451075,419.322186 C837.756655,411.191211 827.359618,408.405334 819.228643,413.099754 C811.097668,417.794174 808.311791,428.191211 813.006211,436.322186 Z M726.20623,441.980208 C734.076287,455.611548 751.506614,460.281989 765.137954,452.411932 C778.769293,444.541874 783.439735,427.111548 775.569678,413.480208 C767.69962,399.848868 750.269293,395.178426 736.637954,403.048484 C723.006614,410.918541 718.336172,428.348868 726.20623,441.980208 Z M767.20623,512.994291 C775.076287,526.625631 792.506614,531.296073 806.137954,523.426015 C819.769293,515.555957 824.439735,498.125631 816.569678,484.494291 C808.69962,470.862951 791.269293,466.192509 777.637954,474.062567 C764.006614,481.932625 759.336172,499.362951 767.20623,512.994291 Z" id="Movie-Reel-2" sketch:type="MSShapeGroup" transform="translate(804.009732, 425.639173) rotate(-8.000000) translate(-804.009732, -425.639173) "></path>
        </g>
    </g>
</svg>