<?xml version="1.0" encoding="UTF-8" standalone="no"?>
<svg width="31px" height="30px" viewBox="0 0 31 30" version="1.1" xmlns="http://www.w3.org/2000/svg" xmlns:xlink="http://www.w3.org/1999/xlink" xmlns:sketch="http://www.bohemiancoding.com/sketch/ns">
    <!-- Generator: Sketch 3.0.1 (7597) - http://www.bohemiancoding.com/sketch -->
    <title>rotten tomatoes</title>
    <description>Created with Sketch.</description>
    <defs></defs>
    <g id="Movie-Screen" stroke="none" stroke-width="1" fill="none" fill-rule="evenodd" sketch:type="MSPage">
        <g id="Desktop" sketch:type="MSArtboardGroup" transform="translate(-225.000000, -184.000000)">
            <g id="Spiderman" sketch:type="MSLayerGroup" transform="translate(58.000000, 64.000000)">
                <g id="ratings" transform="translate(39.000000, 116.000000)" sketch:type="MSShapeGroup">
                    <g id="ciritc's-rating-+-rotten-tomatoes" transform="translate(130.000000, 3.000000)">
                        <g id="rotten-tomatoes" transform="translate(0.000000, 1.000000)">
                            <path d="M26.9123521,17 C27.8034735,10.9248678 21.7985589,6 13.5,6 C5.20144106,6 -0.803473516,10.9248678 0.0876479024,17 C0.978769321,23.0751322 6.9836839,28 13.5,28 C20.0163161,28 26.0212307,23.0751322 26.9123521,17 Z" id="Oval-5" stroke="#F81C1C" stroke-width="4" fill="#FF3E3E"></path>
                            <path d="M4.78245854,14.6173982 C7.27434261,12.7111678 7.78955324,8.75175877 7.78955324,8.75175877 C7.78955324,8.75175877 2.87089624,2.98993617 4.24100609,3.84028547 C5.61111594,4.69063477 11.5372058,4.69063493 11.5372058,4.69063493 C11.5372058,4.69063493 16.9657391,-2.02047676 16.5967268,0.612136057 C16.2277144,3.24474887 17.7855412,6.14013104 17.7855412,6.14013104 C17.7855412,6.14013104 27.3339459,8.53095351 24.4610443,8.53095341 C21.5881427,8.53095332 17.8995723,11.0970927 17.8995723,11.0970927 C17.8995723,11.0970927 16.9657396,18.689004 16.9657392,16.6532011 C16.9657387,14.6173982 11.721712,12.7111674 11.721712,12.7111674 C11.721712,12.7111674 2.29057446,16.5236287 4.78245854,14.6173982 Z" id="Star-1" stroke="#59B12D" stroke-width="3" fill="#3A851B"></path>
                            <path d="M13,7 C12.3109841,4.64124868 10.0614994,3.0223279 9,1" id="Path" stroke="#3B851C" stroke-width="4" transform="translate(11.000000, 4.000000) rotate(26.000000) translate(-11.000000, -4.000000) "></path>
                        </g>
                    </g>
                </g>
            </g>
        </g>
    </g>
</svg>